<?xml version="1.0" encoding="UTF-8"?>
<svg version="1.1" xmlns="http://www.w3.org/2000/svg" width="120" height="100">
<path d="M0 0 C1.65 0.33 3.3 0.66 5 1 C5.6700834 3.12392506 6.33596797 5.24917524 7 7.375 C7.37125 8.55835937 7.7425 9.74171875 8.125 10.9609375 C9 14 9 14 9 16 C14.94 15.505 14.94 15.505 21 15 C21.27714844 14.08476563 21.55429688 13.16953125 21.83984375 12.2265625 C22.20207031 11.03804687 22.56429687 9.84953125 22.9375 8.625 C23.29714844 7.44164063 23.65679687 6.25828125 24.02734375 5.0390625 C25 2 25 2 26 0 C27.65 0 29.3 0 31 0 C32.32 2.31 33.64 4.62 35 7 C36.98 6.67 38.96 6.34 41 6 C41 10 41 10 39.63671875 11.78125 C31.17272736 19.2444889 22.68241962 21.76056347 11.4296875 21.37890625 C2.94967611 20.4420485 -3.27810987 17.38803939 -9.63671875 11.78125 C-11 10 -11 10 -11 6 C-8.03 6.495 -8.03 6.495 -5 7 C-3.35 4.69 -1.7 2.38 0 0 Z M1 8 C0.34 9.32 -0.32 10.64 -1 12 C0.32 12.33 1.64 12.66 3 13 C2.67 11.35 2.34 9.7 2 8 C1.67 8 1.34 8 1 8 Z M29 8 C28.67 9.65 28.34 11.3 28 13 C28.99 12.67 29.98 12.34 31 12 C30.34 10.68 29.68 9.36 29 8 Z " fill="#F75474" transform="translate(44,69)"/>
<path d="M0 0 C2 2 2 2 2.40625 4.6328125 C1.85997492 9.16059246 -0.05948873 12.09330685 -2.5 15.875 C-2.92925781 16.56335938 -3.35851562 17.25171875 -3.80078125 17.9609375 C-4.8552757 19.64812861 -5.92603925 21.32513264 -7 23 C-8.32 22.67 -9.64 22.34 -11 22 C-10.40165275 17.85701333 -8.99335715 14.81805623 -6.9375 11.1875 C-6.11572266 9.72376953 -6.11572266 9.72376953 -5.27734375 8.23046875 C-4.85582031 7.49441406 -4.43429688 6.75835937 -4 6 C-5.04800781 6.44472656 -6.09601563 6.88945312 -7.17578125 7.34765625 C-8.55448063 7.9197696 -9.93339839 8.49135691 -11.3125 9.0625 C-12.00279297 9.35705078 -12.69308594 9.65160156 -13.40429688 9.95507812 C-18.66015625 12.11328125 -18.66015625 12.11328125 -22 11 C-21.71386719 9.12011719 -21.71386719 9.12011719 -21 7 C-18.40222825 5.54097751 -15.98676344 4.3726512 -13.25 3.25 C-12.53328125 2.93417969 -11.8165625 2.61835938 -11.078125 2.29296875 C-7.33885707 0.70515461 -4.13434333 -0.64312007 0 0 Z " fill="#F75D7B" transform="translate(102,16)"/>
<path d="M0 0 C2.4891644 0.8751378 4.94981436 1.83563473 7.375 2.875 C8.31666016 3.25978516 8.31666016 3.25978516 9.27734375 3.65234375 C11.0859375 4.4296875 11.0859375 4.4296875 14 6 C14.33 6.99 14.66 7.98 15 9 C13.484375 10.1796875 13.484375 10.1796875 11 11 C8.25931938 10.16613334 5.84709844 9.27872048 3.25 8.125 C2.55261719 7.82980469 1.85523438 7.53460938 1.13671875 7.23046875 C-0.58146788 6.50082785 -2.29157628 5.75221642 -4 5 C-3.22462891 6.21236328 -3.22462891 6.21236328 -2.43359375 7.44921875 C-1.44552734 9.05216797 -1.44552734 9.05216797 -0.4375 10.6875 C0.22378906 11.74324219 0.88507812 12.79898437 1.56640625 13.88671875 C3.12228996 17.26557247 3.17333576 18.54410943 2 22 C-2.23006385 20.50085773 -4.05571945 17.47203263 -6.3125 13.8125 C-7.03050781 12.70519531 -7.74851562 11.59789062 -8.48828125 10.45703125 C-10.26644031 6.39069852 -10.15679467 4.24158045 -9 0 C-5.84969815 -1.57515093 -3.40572479 -0.65894879 0 0 Z " fill="#F75C7A" transform="translate(24,17)"/>
<path d="M0 0 C2 2 2 2 2 5 C-1.84800346 6.28266782 -3.2791704 5.40177162 -7.0625 4.0625 C-17.09521554 0.85914958 -24.16503465 1.66991524 -34 5 C-35.32979042 5.34719784 -36.66212602 5.6853858 -38 6 C-38.33 4.35 -38.66 2.7 -39 1 C-37.43979133 0.34865075 -35.87671421 -0.29582964 -34.3125 -0.9375 C-33.44238281 -1.29714844 -32.57226562 -1.65679687 -31.67578125 -2.02734375 C-20.93691634 -5.93096034 -10.40300231 -4.19797148 0 0 Z " fill="#F86581" transform="translate(78,14)"/>
<path d="M0 0 C2.3125 0.875 2.3125 0.875 3.3125 2.875 C3.46098642 5.20509456 3.53379535 7.5403555 3.5625 9.875 C3.60117188 11.7621875 3.60117188 11.7621875 3.640625 13.6875 C3.53234375 14.739375 3.4240625 15.79125 3.3125 16.875 C0.3125 18.875 0.3125 18.875 -2.25 18.6875 C-4.6875 17.875 -4.6875 17.875 -6.6875 14.875 C-7.33229201 9.96408409 -7.63122834 5.41292767 -5 1.125 C-2.6875 -0.125 -2.6875 -0.125 0 0 Z " fill="#2828A0" transform="translate(77.6875,44.125)"/>
<path d="M0 0 C2.3125 1.25 2.3125 1.25 3.3125 2.25 C3.46443163 4.37119924 3.53433514 6.49855315 3.5625 8.625 C3.60117187 10.36910156 3.60117187 10.36910156 3.640625 12.1484375 C3.3125 15.25 3.3125 15.25 1.9921875 17.17578125 C0.3125 18.25 0.3125 18.25 -2.8125 18.0625 C-3.76125 17.794375 -4.71 17.52625 -5.6875 17.25 C-7.10092994 14.42314012 -6.93327366 11.96268563 -7 8.8125 C-7.03738281 7.65878906 -7.07476562 6.50507812 -7.11328125 5.31640625 C-6.6875 2.25 -6.6875 2.25 -4.8359375 0.29296875 C-2.6875 -0.75 -2.6875 -0.75 0 0 Z " fill="#24249F" transform="translate(43.6875,44.75)"/>
<path d="M0 0 C3.9990906 0.23071677 6.33396421 0.43643125 9.4375 3.0625 C11.42330639 6.79581602 11.78365543 9.9058002 11 14 C9.375 17.4375 9.375 17.4375 7 20 C3.75 20.875 3.75 20.875 1 21 C0.67 19.68 0.34 18.36 0 17 C0.825 16.649375 1.65 16.29875 2.5 15.9375 C5.37570119 14.15595417 5.37570119 14.15595417 5.625 10.5 C5.41875 9.345 5.2125 8.19 5 7 C2.55503957 5.28288757 2.55503957 5.28288757 0 4 C0 2.68 0 1.36 0 0 Z " fill="#F75D7B" transform="translate(95,44)"/>
<path d="M0 0 C-1.00060584 2.23212073 -1.77679757 3.80255169 -3.625 5.4375 C-5.18878576 6.96782416 -5.18878576 6.96782416 -5.5625 9.375 C-4.69821703 13.40832053 -2.2801177 14.60824751 1 17 C0.67 17.99 0.34 18.98 0 20 C-3.2733498 19.70242275 -5.53470347 19.30181397 -8.3125 17.5 C-10.78382502 13.83877774 -11.34165854 10.38841411 -11 6 C-7.97336376 0.15546105 -6.35726509 -1.50566805 0 0 Z " fill="#F75C7A" transform="translate(23,45)"/>
<path d="M0 0 C-1.31177858 2.9262753 -2.75289234 4.75289234 -5 7 C-6.17574711 9.09989652 -6.17574711 9.09989652 -7 11 C-7 10.01 -7 9.02 -7 8 C-7.66 8 -8.32 8 -9 8 C-9.66 9.32 -10.32 10.64 -11 12 C-11.50341475 6.7141451 -10.26910671 4.13445849 -7 0 C-4.3333581 -1.33332095 -2.83319697 -0.67102033 0 0 Z " fill="#F86884" transform="translate(23,45)"/>
<path d="M0 0 C2.375 1.375 2.375 1.375 4 3 C4 3.99 4 4.98 4 6 C0.06322574 7.31225809 -1.7794262 6.3393954 -5.6875 5.0625 C-6.86699219 4.68222656 -8.04648438 4.30195313 -9.26171875 3.91015625 C-10.16535156 3.60980469 -11.06898437 3.30945313 -12 3 C-10.68 2.67 -9.36 2.34 -8 2 C-8 1.34 -8 0.68 -8 0 C-5.05854616 -1.47072692 -3.14695372 -0.75526889 0 0 Z " fill="#F86682" transform="translate(76,13)"/>
<path d="M0 0 C0 0.66 0 1.32 0 2 C-0.66 2 -1.32 2 -2 2 C-2 2.66 -2 3.32 -2 4 C-7.61 4 -13.22 4 -19 4 C-18.67 3.01 -18.34 2.02 -18 1 C-15.75013201 0.83156069 -13.50009983 0.66531346 -11.25 0.5 C-9.37054688 0.36078125 -9.37054688 0.36078125 -7.453125 0.21875 C-4.97265229 0.06161598 -2.48544483 0 0 0 Z " fill="#F74769" transform="translate(70,11)"/>
<path d="M0 0 C2.97 0 5.94 0 9 0 C9 0.66 9 1.32 9 2 C5.7 2.33 2.4 2.66 -1 3 C-0.67 2.01 -0.34 1.02 0 0 Z " fill="#F63359" transform="translate(52,12)"/>
<path d="M0 0 C1.65 0 3.3 0 5 0 C5 0.99 5 1.98 5 3 C4.01 3 3.02 3 2 3 C-0.20142332 5.4390706 -0.20142332 5.4390706 -2 8 C-1.125 2.25 -1.125 2.25 0 0 Z " fill="#F8758E" transform="translate(70,69)"/>
<path d="M0 0 C0.66 0.33 1.32 0.66 2 1 C1.67 2.65 1.34 4.3 1 6 C-0.32 5.34 -1.64 4.68 -3 4 C-3 3.34 -3 2.68 -3 2 C-2.01 1.34 -1.02 0.68 0 0 Z " fill="#F8768F" transform="translate(25,33)"/>
<path d="M0 0 C0 0.99 0 1.98 0 3 C-0.33 3.33 -0.66 3.66 -1 4 C-0.34 4.66 0.32 5.32 1 6 C-0.65 5.67 -2.3 5.34 -4 5 C-4 4.01 -4 3.02 -4 2 C-2.68 1.34 -1.36 0.68 0 0 Z " fill="#F86E89" transform="translate(99,59)"/>
</svg>
